<svg xmlns="http://www.w3.org/2000/svg" width="256" height="256" viewBox="0 0 64 64" fill="none" stroke-linecap="round" stroke-linejoin="round"><path d="M52 32 L61 24 L59 32 L61 40 Z" fill="#FDE68A" stroke="#92400E" stroke-width="2" stroke-linejoin="round"></path><path d="M8 32 C13 21 25 15 37 18 C47 20 53 27 53 33 C53 39 45 45 35 46 C23 47 12 41 8 32 Z" fill="#E2E8F0" stroke="#334155" stroke-width="2.5"></path><path d="M28 19 Q31 9 38 10 Q43 12 41 20 Z" fill="#FDE68A" stroke="#334155" stroke-width="2"></path><path d="M28 19 Q31 12 36 12 Q33 16 30 19 Z" fill="#334155"></path><path d="M22 26 q3 3 6 0 M28 26 q3 3 6 0 M34 26 q3 3 6 0" stroke="#94A3B8" stroke-width="1.5"></path><path d="M22 33 q3 3 6 0 M28 33 q3 3 6 0 M34 33 q3 3 6 0" stroke="#94A3B8" stroke-width="1.5"></path><path d="M24 40 q3 2 5 0 M30 40 q3 2 5 0" stroke="#94A3B8" stroke-width="1.5"></path><path d="M18 24 Q22 32 18 40" stroke="#94A3B8" stroke-width="1.5"></path><circle cx="15" cy="29" r="2.8" fill="#fff" stroke="#334155" stroke-width="1.5"></circle><circle cx="15" cy="29" r="1.2" fill="#0F172A"></circle></svg>